<?xml version="1.0" encoding="utf-8"?>
<!-- Generator: Adobe Illustrator 16.0.0, SVG Export Plug-In . SVG Version: 6.00 Build 0)  -->
<!DOCTYPE svg PUBLIC "-//W3C//DTD SVG 1.1//EN" "http://www.w3.org/Graphics/SVG/1.1/DTD/svg11.dtd">
<svg version="1.1" id="Layer_1" xmlns="http://www.w3.org/2000/svg" xmlns:xlink="http://www.w3.org/1999/xlink" x="0px" y="0px"
	 width="2530.25px" height="192.771px" viewBox="0 0 2530.25 192.771" enable-background="new 0 0 2530.25 192.771"
	 xml:space="preserve">
<g>
	<polygon fill="#FF2B06" points="29.286,173.542 24.21,165.882 19.134,173.542 13.274,173.542 21.212,161.934 13.994,151.531 
		19.983,151.531 24.301,157.938 28.573,151.531 34.331,151.531 27.116,161.8 35.271,173.542 	"/>
	<path fill="#FFFFFF" d="M44.203,169.448v-3.763h21.478v3.763H44.203z M44.203,159.922v-3.763h21.478v3.763H44.203z"/>
	<path fill="#FFFFFF" d="M77.583,173.543v-22.012h5.32v22.012H77.583z M77.584,146.969v-4.208h5.32v4.208H77.584z"/>
	<path fill="#FFFFFF" d="M87.998,173.542v-22.011h5.009v3.205h0.912l0.146-0.236c1.396-2.249,3.867-3.592,6.608-3.592
		c5.62,0,7.912,2.602,7.912,8.98v13.647h-5.32V161.04c0-2.64-0.472-6.146-4.55-6.146c-3.732,0-5.396,2.186-5.396,7.087v11.562
		L87.998,173.542L87.998,173.542z"/>
	<path fill="#FFFFFF" d="M122.347,174.166c-6.788,0-9.826-5.938-9.826-11.829c0-5.688,2.997-11.429,9.693-11.429
		c2.734,0,5.139,1.195,6.434,3.198l0.42-0.771l-0.044,1h0.5l0.089-0.5v-11.066h5.32v30.773h-5.009v-2.937h-0.786l-0.234,0.246
		C127.29,173.591,124.447,174.166,122.347,174.166z M123.905,154.67c-3.797,0-6.064,2.937-6.064,7.851
		c0,3.926,1.875,7.888,6.064,7.888c3.824,0,5.93-2.818,5.93-7.938C129.835,157.51,127.673,154.67,123.905,154.67z"/>
	<path fill="#FFFFFF" d="M149.942,174.166c-6.834,0-11.25-4.555-11.25-11.604c0-6.751,4.731-11.651,11.25-11.651
		c3.043,0,5.646,1.059,7.526,3.062c2.164,2.304,3.307,5.78,3.169,9.604h-16.649l0.023,0.522c0.187,4.184,2.257,6.305,6.152,6.305
		c2.583,0,4.675-1.486,5.334-2.982h4.509C158.299,171.958,155,174.166,149.942,174.166z M149.763,154.67
		c-4.328,0-5.652,3.376-5.751,5.371l-0.026,0.525h11.406l-0.106-0.589C154.622,156.306,152.919,154.67,149.763,154.67z"/>
	<path fill="#FFFFFF" d="M164.459,181.644l0.001-30.113h5.009v2.938h0.779l0.235-0.234c1.7-2.747,4.434-3.323,6.429-3.323
		c7.343,0,9.96,6.134,9.96,11.874c0,5.666-2.97,11.384-9.604,11.384c-2.704,0-5.127-1.215-6.483-3.249l-0.148-0.223h-0.768
		l-0.089,0.5v10.45L164.459,181.644L164.459,181.644z M175.533,154.668c-3.797,0-5.975,2.896-5.975,7.938
		c0,4.884,2.25,7.799,6.019,7.799c3.797,0,5.975-2.843,5.975-7.799C181.552,158.767,179.971,154.668,175.533,154.668z"/>
	<path fill="#FFFFFF" d="M200.902,174.166c-6.834,0-11.25-4.555-11.25-11.604c0-6.751,4.731-11.651,11.25-11.651
		c3.043,0,5.646,1.059,7.526,3.062c2.164,2.304,3.307,5.78,3.17,9.604h-16.65l0.023,0.522c0.187,4.184,2.257,6.305,6.152,6.305
		c2.583,0,4.675-1.486,5.334-2.982h4.509C209.259,171.958,205.96,174.166,200.902,174.166z M200.723,154.67
		c-4.328,0-5.652,3.376-5.751,5.371l-0.026,0.525h11.406l-0.106-0.589C205.582,156.306,203.879,154.67,200.723,154.67z"/>
	<path fill="#FFFFFF" d="M215.42,173.542v-22.011h5.009v3.205h0.911l0.146-0.236c1.396-2.249,3.867-3.592,6.608-3.592
		c5.62,0,7.912,2.602,7.912,8.98v13.647h-5.32V161.04c0-2.64-0.472-6.146-4.55-6.146c-3.732,0-5.396,2.186-5.396,7.087v11.562
		L215.42,173.542L215.42,173.542z"/>
	<path fill="#FFFFFF" d="M249.769,174.166c-6.788,0-9.826-5.938-9.826-11.829c0-5.688,2.997-11.429,9.693-11.429
		c2.733,0,5.139,1.195,6.435,3.198l0.42-0.771l-0.044,1h0.5l0.089-0.5v-11.066h5.32v30.773h-5.009v-2.937h-0.786l-0.234,0.246
		C254.711,173.591,251.869,174.166,249.769,174.166z M251.327,154.67c-3.797,0-6.064,2.937-6.064,7.851
		c0,3.926,1.875,7.888,6.064,7.888c3.824,0,5.93-2.818,5.93-7.938C257.257,157.51,255.096,154.67,251.327,154.67z"/>
	<path fill="#FFFFFF" d="M277.364,174.166c-6.834,0-11.25-4.555-11.25-11.604c0-6.751,4.731-11.651,11.25-11.651
		c3.043,0,5.646,1.059,7.526,3.062c2.164,2.304,3.307,5.78,3.17,9.604h-16.65l0.023,0.522c0.187,4.184,2.257,6.305,6.152,6.305
		c2.583,0,4.675-1.486,5.334-2.982h4.509C285.721,171.958,282.422,174.166,277.364,174.166z M277.185,154.67
		c-4.328,0-5.652,3.376-5.751,5.371l-0.026,0.525h11.406l-0.106-0.589C282.043,156.306,280.341,154.67,277.185,154.67z"/>
	<path fill="#FFFFFF" d="M291.879,173.542l0.003-22.011h5.009v3.205h0.912l0.146-0.236c1.396-2.249,3.865-3.592,6.604-3.592
		c5.62,0,7.912,2.602,7.912,8.98v13.647h-5.313V161.04c0-2.64-0.475-6.146-4.557-6.146c-3.729,0-5.396,2.186-5.396,7.087v11.562
		L291.879,173.542L291.879,173.542z"/>
	<path fill="#FFFFFF" d="M325.83,173.812c-4.735,0-6.755-1.489-6.755-4.979v-14.076h-3.828v-3.229h3.828v-6.899h5.321v6.901h4.629
		v3.229h-4.629v11.896c0,2.396,0.77,3.17,3.17,3.17c0.534,0,1.006-0.027,1.458-0.088v3.917
		C328.206,173.76,327.155,173.812,325.83,173.812z"/>
	<rect x="332.338" y="142.76" fill="#FFFFFF" width="5.32" height="30.78"/>
	<path fill="#FFFFFF" d="M345.68,181.644c-1.035,0-2.143-0.062-3.372-0.181v-4.214c0.159,0.018,0.319,0.03,0.479,0.045
		c0.754,0.071,1.535,0.146,2.322,0.146c0.137,0,0.271-0.002,0.408-0.007c1.059-0.108,1.9-0.628,2.41-1.466
		c0.604-0.984,0.688-2.342,0.222-3.533l-7.848-20.905h5.686l5.208,15.757h0.727l0.2-0.348l4.919-15.409h5.459l-9.365,25.229
		C351.804,180.321,349.783,181.644,345.68,181.644z"/>
	<path fill="#FFFFFF" d="M387.117,174.163c-6.916,0-11.384-4.555-11.384-11.604c0-3.477,1.067-6.406,3.095-8.48
		c2.022-2.074,4.892-3.171,8.289-3.171c6.94,0,11.429,4.573,11.429,11.651C398.546,169.608,394.06,174.163,387.117,174.163z
		 M387.117,154.667c-3.854,0-6.064,2.877-6.064,7.896c0,4.981,2.21,7.844,6.064,7.844c3.879,0,6.104-2.859,6.104-7.844
		C393.222,157.544,390.997,154.667,387.117,154.667z"/>
	<path fill="#FFFFFF" d="M401.859,173.544l-0.002-22.013h5.009v4.273h0.839l0.214-0.314c1.062-2.655,3.954-4.582,6.879-4.582
		c0.271,0,0.59,0.038,0.879,0.104v4.896c-0.546-0.077-1.191-0.124-1.77-0.124c-4.341,0-6.731,2.802-6.731,7.889v9.871H401.859z"/>
	<path fill="#FFFFFF" d="M427.97,182.267c-4.425,0-9.006-1.981-9.596-6.396h5.345c0.667,2.07,2.421,3.161,5.103,3.161
		c1.667,0,3.005-0.499,3.976-1.484c1.071-1.087,1.623-2.719,1.594-4.721v-3.517h-0.79l-0.23,0.251
		c-1.191,2.069-3.607,3.31-6.462,3.31c-5.849,0-9.336-4.14-9.336-11.073c0-5.244,2.936-10.895,9.381-10.895
		c3.049,0,5.088,1.094,6.418,3.439l0.144,0.255h0.792l0.09-0.5v-2.571h5.015l-0.002,21.044
		C439.402,178.916,435.449,182.267,427.97,182.267z M428.507,154.671c-3.414,0-5.619,2.768-5.619,7.043
		c0,3.577,1.479,7.399,5.619,7.399c4.044-0.001,5.886-3.562,5.886-6.865C434.393,157.362,432.302,154.671,428.507,154.671z"/>
	<path fill="#FFFFFF" d="M450.05,174.166c-4.592,0-7.333-2.391-7.333-6.396c0-4.819,3.56-5.972,7.4-6.493
		c0.689-0.104,1.369-0.186,2.018-0.26c3.031-0.358,5.896-0.696,5.896-3.265c0-3.609-3.106-3.609-4.602-3.609
		c-3.277,0-4.345,1.793-4.624,3.472l-5.334-0.006c0.689-5.815,6.688-6.701,10.271-6.701c6.373,0,9.604,2.033,9.604,6.043v11.973
		c0,1.226,0.078,3.253,0.536,4.619h-5.27c-0.184-0.635-0.285-1.212-0.317-1.755l-0.068-1.145l-0.792,0.828
		C455.77,173.209,453.148,174.166,450.05,174.166z M457.197,162.405c-0.689,0.603-2.116,0.799-3.497,0.988
		c-0.507,0.066-1.021,0.141-1.519,0.229c-1.354,0.277-4.147,0.854-4.147,3.875c0,2.281,1.471,3.438,4.373,3.438
		c3.624,0,5.619-2.062,5.619-5.796l-0.001-3.465L457.197,162.405z"/>
	<path fill="#FFFFFF" d="M468.353,173.542l-0.003-22.011h5.016v3.205h0.911l0.146-0.236c1.396-2.249,3.866-3.592,6.608-3.592
		c5.618,0,7.909,2.602,7.909,8.98v13.647h-5.317V161.04c0-2.64-0.472-6.146-4.55-6.146c-3.732,0-5.396,2.186-5.396,7.087v11.562
		L468.353,173.542L468.353,173.542z"/>
	<path fill="#FFFFFF" d="M493.14,173.543v-22.012h5.32v22.012H493.14z M493.14,146.969v-4.208h5.32v4.208H493.14z"/>
	<polygon fill="#FFFFFF" points="502.13,173.543 502.13,169.469 514.716,155.294 503.02,155.294 503.02,151.531 521.426,151.531 
		521.426,155.604 508.841,169.78 522.271,169.78 522.271,173.543 	"/>
	<path fill="#FFFFFF" d="M535.9,174.166c-6.834,0-11.25-4.555-11.25-11.604c0-6.751,4.729-11.651,11.25-11.651
		c3.042,0,5.643,1.057,7.521,3.057c2.164,2.307,3.312,5.784,3.174,9.608h-16.646l0.021,0.522c0.191,4.184,2.264,6.305,6.152,6.305
		c2.584,0,4.676-1.486,5.335-2.982h4.506C544.258,171.958,540.958,174.166,535.9,174.166z M535.724,154.67
		c-4.327,0-5.649,3.376-5.751,5.371l-0.023,0.525h11.402l-0.104-0.589C540.583,156.306,538.88,154.67,535.724,154.67z"/>
	<path fill="#FFFFFF" d="M559.269,174.166c-6.784,0-9.821-5.938-9.821-11.829c0-5.688,2.997-11.429,9.688-11.429
		c2.736,0,5.144,1.195,6.438,3.198l0.42-0.771l-0.045,1h0.5l0.089-0.5v-11.066h5.314v30.773h-5.008l0.004-2.937h-0.786l-0.232,0.246
		C564.21,173.591,561.369,174.166,559.269,174.166z M560.827,154.67c-3.797,0-6.063,2.937-6.063,7.851
		c0,3.926,1.875,7.888,6.063,7.888c3.824,0,5.93-2.818,5.93-7.938C566.755,157.51,564.594,154.67,560.827,154.67z"/>
	<polygon fill="#FFFFFF" points="595.912,173.54 595.908,147.638 586.384,147.638 586.384,142.763 611.422,142.763 611.422,147.638 
		601.9,147.638 601.9,173.54 	"/>
	<polygon fill="#FFFFFF" points="615.18,173.541 615.178,142.76 637.949,142.76 637.949,147.635 621.169,147.635 621.169,155.447 
		636.569,155.447 636.569,159.877 621.169,159.877 621.169,168.666 638.305,168.666 638.305,173.541 	"/>
	<path fill="#FFFFFF" d="M642.239,173.54v-30.78h13.209c8.717,0,13.921,5.688,13.921,15.219c0,9.746-5.204,15.562-13.921,15.562
		H642.239z M648.227,168.667h6.731c5.274,0,8.423-3.746,8.423-10.021c0-7.508-3.073-11.004-9.67-11.004h-5.484V168.667z"/>
	<path fill="#FFFFFF" d="M695.279,174.166c-6.834,0-11.25-4.555-11.25-11.604c0-6.751,4.729-11.651,11.25-11.651
		c3.042,0,5.643,1.057,7.521,3.057c2.164,2.307,3.312,5.784,3.174,9.608h-16.646l0.021,0.522c0.191,4.184,2.264,6.305,6.152,6.305
		c2.584,0,4.676-1.486,5.335-2.982h4.506C703.637,171.958,700.337,174.166,695.279,174.166z M695.104,154.67
		c-4.317,0-5.646,3.376-5.752,5.37l-0.024,0.526h11.406l-0.106-0.589C699.962,156.306,698.259,154.67,695.104,154.67z"/>
	<polygon fill="#FFFFFF" points="714.468,173.542 706.928,151.53 712.495,151.53 717.347,167.242 718.084,167.242 718.282,166.889 
		723.028,151.53 728.234,151.53 720.781,173.542 	"/>
	<path fill="#FFFFFF" d="M740.406,174.166c-6.834,0-11.25-4.555-11.25-11.604c0-6.751,4.729-11.651,11.25-11.651
		c3.044,0,5.646,1.059,7.523,3.062c2.164,2.304,3.31,5.78,3.169,9.604h-16.643l0.022,0.522c0.188,4.184,2.256,6.305,6.146,6.305
		c2.584,0,4.676-1.486,5.335-2.982h4.507C748.767,171.958,745.468,174.166,740.406,174.166z M740.236,154.67
		c-4.328,0-5.652,3.376-5.751,5.371l-0.026,0.525h11.401l-0.106-0.589C745.092,156.306,743.39,154.67,740.236,154.67z"/>
	<path fill="#FFFFFF" d="M754.932,173.542l-0.002-22.011h5.016v3.205h0.911l0.146-0.236c1.396-2.249,3.865-3.592,6.604-3.592
		c5.618,0,7.91,2.602,7.91,8.98v13.647H770.2V161.04c0-2.64-0.472-6.146-4.552-6.146c-3.732,0-5.396,2.186-5.396,7.087v11.562
		L754.932,173.542L754.932,173.542z"/>
	<path fill="#FFFFFF" d="M788.879,173.812c-4.734,0-6.755-1.489-6.755-4.979v-14.076h-3.828v-3.229h3.828v-6.899h5.32v6.901h4.629
		v3.229h-4.629v11.896c0,2.396,0.771,3.17,3.171,3.17c0.537,0,1.006-0.027,1.458-0.088v3.917
		C791.255,173.76,790.204,173.812,788.879,173.812z"/>
</g>
<g>
	<polygon fill="#FF2B06" points="40.155,115.316 40.155,36.621 10.5,36.621 10.5,10.5 101.379,10.5 101.379,36.621 71.736,36.621 
		71.736,115.316 	"/>
	<polygon fill="#FF2B06" points="107.444,115.316 107.444,10.5 195.636,10.5 195.636,36.621 139.046,36.621 139.046,50.809 
		195.636,50.809 195.636,75.008 139.046,75.008 139.046,89.196 195.651,89.196 195.651,115.316 	"/>
	<path fill="#FF2B06" d="M202.122,115.316L202.123,10.5h53c16.15,0,28.495,5.443,36.691,16.181
		c8.709,11.404,10.537,25.911,10.537,36.072c0,16.493-4.396,29.399-13.064,38.358c-9.122,9.426-22.757,14.205-40.529,14.205H202.122
		L202.122,115.316z M233.723,89.196h13.25c20.689,0,23.778-16.854,23.778-26.896c0-23.825-20.017-25.679-26.152-25.679h-10.876
		V89.196L233.723,89.196z"/>
</g>
<polygon fill="#FF2B06" points="307.113,74.539 329.45,41.692 307.957,10.296 330.612,10.296 339.748,26.578 349.147,10.296 
	371.798,10.296 350.312,41.691 372.649,74.538 349.98,74.539 339.748,57.57 329.769,74.539 "/>
<polygon fill="#FF2B06" points="308.058,74.039 330.056,41.691 308.905,10.796 330.319,10.796 339.742,27.589 349.436,10.796 
	370.85,10.796 349.707,41.69 371.705,74.038 350.263,74.039 339.743,56.593 329.482,74.039 "/>
<text transform="matrix(1 0 0 1 385.8076 115.8318)" fill="#FFFFFF" font-family="Helvetica" font-size="144.6">Place</text>
</svg>
