<?xml version="1.0" encoding="utf-8"?>
<!-- Generator: Adobe Illustrator 16.0.0, SVG Export Plug-In . SVG Version: 6.00 Build 0)  -->
<!DOCTYPE svg PUBLIC "-//W3C//DTD SVG 1.1//EN" "http://www.w3.org/Graphics/SVG/1.1/DTD/svg11.dtd">
<svg version="1.1" id="Layer_1" xmlns="http://www.w3.org/2000/svg" xmlns:xlink="http://www.w3.org/1999/xlink" x="0px" y="0px"
	 width="2592.85px" height="240.35px" viewBox="0 0 2592.85 240.35" enable-background="new 0 0 2592.85 240.35"
	 xml:space="preserve">
<g>
	<polygon fill="#FF2B06" points="29.286,173.544 24.21,165.884 19.134,173.544 13.274,173.544 21.212,161.935 13.994,151.533 
		19.983,151.533 24.301,157.941 28.573,151.533 34.331,151.533 27.116,161.802 35.271,173.544 	"/>
	<path fill="#FFFFFF" d="M44.203,169.448v-3.765h21.478v3.765H44.203z M44.203,159.923v-3.763h21.478v3.763H44.203z"/>
	<path fill="#FFFFFF" d="M77.583,173.543v-22.012h5.32v22.012H77.583z M77.584,146.971v-4.208h5.32v4.208H77.584z"/>
	<path fill="#FFFFFF" d="M103.265,173.541v-12.497c0-2.641-0.472-6.152-4.55-6.152c-3.732,0-5.396,2.186-5.396,7.087v11.562h-5.321
		v-22.01h5.009v3.203h0.912l0.146-0.236c1.396-2.248,3.866-3.59,6.608-3.59c5.62,0,7.912,2.602,7.912,8.979v13.654H103.265z"/>
	<path fill="#FFFFFF" d="M122.347,174.167c-6.788,0-9.826-5.941-9.826-11.829c0-5.688,2.997-11.429,9.693-11.429
		c2.735,0,5.14,1.195,6.434,3.198l0.42-0.771l-0.044,1h0.5l0.089-0.5v-11.073h5.32v30.78h-5.009v-2.938h-0.786l-0.234,0.246
		C127.289,173.592,124.447,174.167,122.347,174.167z M123.905,154.671c-3.797,0-6.064,2.933-6.064,7.844
		c0,3.926,1.875,7.888,6.064,7.888c3.824,0,5.93-2.817,5.93-7.933C129.835,157.514,127.673,154.671,123.905,154.671z"/>
	<path fill="#FFFFFF" d="M149.942,174.167c-6.834,0-11.25-4.556-11.25-11.606c0-6.75,4.731-11.649,11.25-11.649
		c3.043,0,5.646,1.059,7.526,3.061c2.164,2.304,3.307,5.783,3.169,9.604h-16.649l0.023,0.522c0.187,4.183,2.257,6.304,6.152,6.304
		c2.584,0,4.676-1.485,5.334-2.98h4.509C158.298,171.959,154.999,174.167,149.942,174.167z M149.763,154.671
		c-4.328,0-5.652,3.376-5.751,5.37l-0.026,0.525h11.406l-0.106-0.589C154.622,156.308,152.919,154.671,149.763,154.671z"/>
	<path fill="#FFFFFF" d="M164.459,181.642l0.001-30.11h5.009v2.938h0.779l0.235-0.237c1.697-2.747,4.433-3.323,6.429-3.323
		c7.343,0,9.96,6.134,9.96,11.874c0,5.666-2.97,11.384-9.604,11.384c-2.704,0-5.127-1.215-6.483-3.251l-0.148-0.223h-0.768
		l-0.089,0.5v10.449H164.459z M175.533,154.671c-3.797,0-5.975,2.892-5.975,7.933c0,4.884,2.25,7.799,6.019,7.799
		c3.797,0,5.975-2.843,5.975-7.799C181.552,158.769,179.971,154.671,175.533,154.671z"/>
	<path fill="#FFFFFF" d="M200.902,174.167c-6.834,0-11.25-4.556-11.25-11.606c0-6.75,4.731-11.649,11.25-11.649
		c3.043,0,5.646,1.059,7.526,3.061c2.164,2.304,3.307,5.783,3.17,9.604h-16.65l0.023,0.522c0.187,4.183,2.257,6.304,6.152,6.304
		c2.584,0,4.676-1.485,5.334-2.98h4.509C209.258,171.959,205.959,174.167,200.902,174.167z M200.723,154.671
		c-4.328,0-5.652,3.376-5.751,5.37l-0.026,0.525h11.406l-0.106-0.589C205.582,156.308,203.879,154.671,200.723,154.671z"/>
	<path fill="#FFFFFF" d="M230.687,173.541v-12.497c0-2.641-0.472-6.152-4.55-6.152c-3.732,0-5.396,2.186-5.396,7.087v11.562h-5.321
		v-22.01h5.009v3.203h0.911l0.146-0.236c1.396-2.248,3.866-3.59,6.608-3.59c5.62,0,7.912,2.602,7.912,8.979v13.654H230.687z"/>
	<path fill="#FFFFFF" d="M249.769,174.167c-6.788,0-9.826-5.941-9.826-11.829c0-5.688,2.997-11.429,9.692-11.429
		c2.735,0,5.141,1.195,6.436,3.198l0.42-0.771l-0.045,1h0.5l0.089-0.5v-11.073h5.32v30.78h-5.009l0.001-2.938h-0.786l-0.234,0.246
		C254.71,173.592,251.869,174.167,249.769,174.167z M251.327,154.671c-3.796,0-6.063,2.933-6.063,7.844
		c0,3.926,1.875,7.888,6.063,7.888c3.824,0,5.931-2.817,5.931-7.933C257.256,157.514,255.095,154.671,251.327,154.671z"/>
	<path fill="#FFFFFF" d="M277.363,174.167c-6.834,0-11.251-4.556-11.251-11.606c0-6.75,4.732-11.649,11.251-11.649
		c3.043,0,5.646,1.059,7.526,3.061c2.164,2.304,3.307,5.783,3.17,9.604H271.41l0.023,0.522c0.187,4.183,2.257,6.304,6.152,6.304
		c2.584,0,4.676-1.484,5.333-2.98h4.509C285.719,171.959,282.42,174.167,277.363,174.167z M277.185,154.671
		c-4.328,0-5.652,3.376-5.751,5.37l-0.026,0.525h11.406l-0.106-0.589C282.044,156.308,280.341,154.671,277.185,154.671z"/>
	<path fill="#FFFFFF" d="M307.149,173.541v-12.497c0-2.641-0.472-6.152-4.553-6.152c-3.731,0-5.396,2.186-5.396,7.087v11.562h-5.321
		v-22.01h5.011v3.203h0.911l0.147-0.236c1.396-2.248,3.866-3.59,6.606-3.59c5.62,0,7.912,2.602,7.912,8.979v13.654H307.149z"/>
	<path fill="#FFFFFF" d="M325.831,173.81c-4.735,0-6.756-1.487-6.756-4.975V154.76h-3.827v-3.229h3.827v-6.899h5.321v6.899h4.629
		v3.229h-4.629v11.896c0,2.399,0.771,3.17,3.171,3.17c0.537,0,1.006-0.028,1.458-0.089v3.917
		C328.204,173.759,327.153,173.81,325.831,173.81z"/>
	<rect x="332.338" y="142.763" fill="#FFFFFF" width="5.32" height="30.78"/>
	<path fill="#FFFFFF" d="M345.68,181.644c-1.022,0-2.129-0.058-3.373-0.176v-4.212c0.153,0.014,0.306,0.028,0.46,0.042
		c0.759,0.071,1.543,0.145,2.334,0.145c0.14,0,0.279-0.002,0.418-0.007c1.055-0.106,1.898-0.625,2.408-1.46
		c0.603-0.987,0.687-2.343,0.22-3.538l-7.844-20.904h5.683l5.207,15.757h0.727l0.2-0.348l4.919-15.409h5.459l-9.365,25.229
		C351.805,180.321,349.785,181.644,345.68,181.644z"/>
	<path fill="#FFFFFF" d="M23.531,221.747c-6.916,0-11.384-4.556-11.384-11.606c0-7.077,4.468-11.649,11.384-11.649
		c6.943,0,11.429,4.572,11.429,11.649C34.96,217.192,30.474,221.747,23.531,221.747z M23.531,202.253
		c-3.854,0-6.064,2.875-6.064,7.889c0,4.984,2.21,7.844,6.064,7.844c3.882,0,6.108-2.859,6.108-7.844
		C29.639,205.128,27.413,202.253,23.531,202.253z"/>
	<path fill="#FFFFFF" d="M38.271,221.125l0.001-22.01h5.009v4.271h0.838l0.215-0.314c1.062-2.654,3.955-4.581,6.879-4.581
		c0.271,0,0.589,0.038,0.879,0.104v4.896c-0.544-0.077-1.191-0.124-1.77-0.124c-4.341,0-6.731,2.802-6.731,7.889v9.87H38.271z"/>
	<path fill="#FFFFFF" d="M64.387,229.848c-4.425,0-9.006-1.98-9.598-6.389h5.348c0.667,2.07,2.42,3.161,5.096,3.161
		c1.668,0,3.006-0.499,3.978-1.484c1.072-1.086,1.624-2.719,1.597-4.721v-3.52h-0.79l-0.233,0.251
		c-1.19,2.073-3.607,3.312-6.465,3.312c-5.846,0-9.336-4.14-9.336-11.073c0-5.247,2.936-10.895,9.381-10.895
		c3.05,0,5.09,1.093,6.419,3.438l0.144,0.254h0.792l0.089-0.5v-2.57h5.009v21.045C75.816,226.497,71.864,229.848,64.387,229.848z
		 M64.922,202.254c-3.413,0-5.619,2.765-5.619,7.043c0,3.576,1.476,7.396,5.619,7.396h0c1.841,0,3.377-0.741,4.443-2.144
		c0.931-1.225,1.443-2.9,1.443-4.719C70.808,204.946,68.718,202.254,64.922,202.254z"/>
	<path fill="#FFFFFF" d="M86.461,221.75c-4.592,0-7.333-2.393-7.333-6.399c0-4.817,3.557-5.968,7.401-6.493
		c0.689-0.103,1.364-0.182,2.011-0.258c3.034-0.356,5.899-0.693,5.899-3.261c0-3.187-2.323-3.616-4.595-3.616
		c-3.28,0-4.346,1.793-4.625,3.472h-5.335c0.671-5.813,6.682-6.702,10.271-6.702c6.373,0,9.604,2.033,9.604,6.043v11.974
		c0,1.223,0.078,3.253,0.533,4.618h-5.27c-0.182-0.646-0.287-1.225-0.318-1.757l-0.068-1.145l-0.792,0.828
		C91.713,221.282,88.653,221.75,86.461,221.75z M93.611,209.99c-0.688,0.603-2.116,0.799-3.497,0.988
		c-0.507,0.069-1.02,0.141-1.516,0.23c-1.354,0.276-4.149,0.847-4.149,3.875c0,1.568,0.759,3.438,4.373,3.438
		c3.624,0,5.619-2.059,5.619-5.796l-0.001-3.461L93.611,209.99z"/>
	<path fill="#FFFFFF" d="M104.765,221.126v-22.011h5.009v3.202h0.912l0.146-0.236c1.396-2.247,3.866-3.589,6.608-3.589
		c5.62,0,7.912,2.602,7.912,8.979v13.654h-5.32v-12.497c0-2.641-0.472-6.152-4.55-6.152c-3.732,0-5.396,2.186-5.396,7.088v11.562
		H104.765z"/>
	<path fill="#FFFFFF" d="M129.555,221.127v-22.012h5.32v22.012H129.555z M129.555,194.554v-4.208h5.32v4.208H129.555z"/>
	<polygon fill="#FFFFFF" points="138.544,221.127 138.545,217.055 151.13,202.878 139.435,202.878 139.435,199.115 157.841,199.115 
		157.841,203.189 145.256,217.365 158.686,217.365 158.686,221.127 	"/>
	<path fill="#FFFFFF" d="M172.315,221.749c-6.834,0-11.25-4.556-11.25-11.606c0-6.75,4.731-11.649,11.25-11.649
		c3.043,0,5.646,1.059,7.526,3.061c2.164,2.303,3.308,5.783,3.17,9.604l-16.648-0.002l0.023,0.522
		c0.186,4.184,2.255,6.306,6.151,6.306c2.585,0,4.677-1.484,5.334-2.98h4.508C180.672,219.541,177.373,221.749,172.315,221.749z
		 M172.138,202.254c-4.329,0-5.652,3.376-5.751,5.37l-0.026,0.525h11.404l-0.106-0.589
		C176.997,203.891,175.294,202.254,172.138,202.254z"/>
	<path fill="#FFFFFF" d="M195.683,221.75c-6.789,0-9.827-5.941-9.827-11.829c0-5.688,2.997-11.429,9.693-11.429
		c2.735,0,5.14,1.195,6.434,3.198l0.42-0.771l-0.045,1h0.5l0.089-0.5v-11.072h5.321v30.78h-5.009l0.001-2.939h-0.786l-0.235,0.246
		C200.624,221.175,197.782,221.75,195.683,221.75z M197.241,202.254c-3.796,0-6.063,2.933-6.063,7.844
		c0,3.927,1.875,7.889,6.063,7.889c3.824,0,5.93-2.817,5.93-7.934C203.169,205.097,201.008,202.254,197.241,202.254z"/>
	<polygon fill="#FFFFFF" points="232.323,221.126 232.323,195.221 222.798,195.221 222.798,190.346 247.836,190.346 
		247.836,195.221 238.311,195.221 238.311,221.126 	"/>
	<polygon fill="#FFFFFF" points="251.593,221.128 251.592,190.346 274.361,190.346 274.361,195.221 257.581,195.221 
		257.581,203.033 272.981,203.033 272.981,207.463 257.581,207.463 257.581,216.252 274.717,216.252 274.717,221.128 	"/>
	<path fill="#FFFFFF" d="M278.653,221.126v-30.78h13.209c8.717,0,13.921,5.688,13.921,15.213c0,9.748-5.204,15.567-13.921,15.567
		H278.653z M284.641,216.25h6.731c5.274,0,8.423-3.747,8.423-10.024c0-7.508-3.073-11.005-9.67-11.005h-5.484V216.25z"/>
	<path fill="#FFFFFF" d="M331.693,221.749c-6.834,0-11.25-4.556-11.25-11.606c0-6.75,4.731-11.649,11.25-11.649
		c3.042,0,5.645,1.058,7.524,3.059c2.164,2.304,3.308,5.783,3.172,9.606l-16.648-0.002l0.023,0.522
		c0.188,4.185,2.257,6.306,6.152,6.306c2.585,0,4.677-1.484,5.335-2.98h4.506C340.05,219.541,336.75,221.749,331.693,221.749z
		 M331.517,202.254c-4.329,0-5.652,3.376-5.751,5.37l-0.026,0.525h11.405l-0.106-0.589
		C336.376,203.891,334.673,202.254,331.517,202.254z"/>
	<polygon fill="#FFFFFF" points="350.879,221.126 343.342,199.115 348.907,199.115 353.759,214.826 354.497,214.826 
		354.694,214.474 359.439,199.115 364.647,199.115 357.195,221.126 	"/>
	<path fill="#FFFFFF" d="M376.823,221.749c-6.834,0-11.25-4.556-11.25-11.606c0-6.75,4.731-11.649,11.25-11.649
		c3.044,0,5.646,1.059,7.526,3.061c2.164,2.304,3.307,5.783,3.169,9.604l-16.647-0.002l0.023,0.522
		c0.188,4.185,2.257,6.306,6.152,6.306c2.585,0,4.677-1.484,5.335-2.98h4.506C385.182,219.541,381.882,221.749,376.823,221.749z
		 M376.648,202.254c-4.325,0-5.651,3.376-5.753,5.37l-0.027,0.525h11.406l-0.106-0.589
		C381.506,203.891,379.804,202.254,376.648,202.254z"/>
	<path fill="#FFFFFF" d="M391.345,221.126l-0.001-22.011h5.009v3.202h0.914l0.146-0.236c1.396-2.247,3.865-3.589,6.605-3.589
		c5.621,0,7.913,2.602,7.913,8.979v13.654h-5.318v-12.497c0-2.641-0.472-6.152-4.553-6.152c-3.731,0-5.396,2.186-5.396,7.088v11.562
		H391.345z"/>
	<path fill="#FFFFFF" d="M425.293,221.394c-4.735,0-6.755-1.487-6.755-4.975v-14.075h-3.828v-3.229h3.828v-6.899h5.32v6.899h4.629
		v3.229h-4.629v11.896c0,2.4,0.771,3.171,3.171,3.171c0.536,0,1.005-0.028,1.458-0.089v3.917
		C427.669,221.343,426.619,221.394,425.293,221.394z"/>
</g>
<g>
	<g>
		<polygon fill="#FF2B06" points="40.155,115.315 40.155,36.621 10.5,36.621 10.5,10.5 101.379,10.5 101.379,36.621 71.736,36.621 
			71.736,115.315 		"/>
		<polygon fill="#FF2B06" points="107.444,115.317 107.444,10.5 195.636,10.5 195.636,36.621 139.046,36.621 139.046,50.807 
			195.636,50.807 195.636,75.01 139.046,75.01 139.046,89.198 195.651,89.198 195.651,115.317 		"/>
		<path fill="#FF2B06" d="M202.123,115.315V10.5h53.001c16.15,0,28.495,5.443,36.691,16.179
			c8.709,11.406,10.537,25.913,10.537,36.074c0,16.493-4.396,29.398-13.067,38.358c-9.122,9.425-22.757,14.204-40.528,14.204
			H202.123z M233.723,89.198h13.25c20.688,0,23.777-16.852,23.777-26.896c0-23.827-20.017-25.679-26.152-25.679h-10.875V89.198z"/>
	</g>
	<polygon fill="#FF2B06" points="349.98,74.54 339.748,57.571 329.77,74.54 307.114,74.54 329.45,41.692 307.957,10.297 
		330.612,10.297 339.748,26.574 349.147,10.297 371.798,10.297 350.312,41.692 372.649,74.54 	"/>
</g>
<text transform="matrix(1 0 0 1 390.8442 115.8167)" fill="#FFFFFF" font-family="Helvetica" font-size="144.6">Place</text>
</svg>
