<?xml version="1.0" encoding="utf-8"?>
<!-- Generator: Adobe Illustrator 16.0.0, SVG Export Plug-In . SVG Version: 6.00 Build 0)  -->
<!DOCTYPE svg PUBLIC "-//W3C//DTD SVG 1.1//EN" "http://www.w3.org/Graphics/SVG/1.1/DTD/svg11.dtd">
<svg version="1.1" id="Layer_1" xmlns="http://www.w3.org/2000/svg" xmlns:xlink="http://www.w3.org/1999/xlink" x="0px" y="0px"
	 width="2526.67px" height="328.271px" viewBox="0 0 2526.67 328.271" enable-background="new 0 0 2526.67 328.271"
	 xml:space="preserve">
<g>
	<polygon fill="#FF2B06" points="29.284,309.043 24.208,301.383 19.132,309.043 13.272,309.043 21.21,297.435 13.992,287.032 
		19.981,287.032 24.299,293.439 28.571,287.032 34.329,287.032 27.114,297.301 35.269,309.043 	"/>
	<path fill="#FFFFFF" d="M44.201,304.948v-3.763h21.478v3.763H44.201z M44.201,295.423v-3.763h21.478v3.763H44.201z"/>
	<path fill="#FFFFFF" d="M77.582,309.043v-22.012h5.32v22.012H77.582z M77.582,282.471v-4.208h5.32v4.208H77.582z"/>
	<path fill="#FFFFFF" d="M87.996,309.042v-22.011h5.009v3.205h0.912L94.063,290c1.396-2.249,3.867-3.592,6.608-3.592
		c5.62,0,7.912,2.602,7.912,8.98v13.652h-5.32v-12.497c0-2.641-0.472-6.15-4.55-6.15c-3.732,0-5.396,2.186-5.396,7.087v11.562
		H87.996z"/>
	<path fill="#FFFFFF" d="M122.345,309.666c-6.788,0-9.826-5.941-9.826-11.829c0-5.688,2.997-11.429,9.693-11.429
		c2.734,0,5.139,1.196,6.434,3.199l0.42-0.771l-0.044,1h0.5l0.089-0.5v-11.071h5.32v30.778h-5.009v-2.938h-0.786l-0.234,0.246
		C127.287,309.091,124.445,309.666,122.345,309.666z M123.903,290.171c-3.797,0-6.064,2.934-6.064,7.847
		c0,3.926,1.875,7.888,6.064,7.888c3.824,0,5.93-2.817,5.93-7.934C129.833,293.014,127.671,290.171,123.903,290.171z"/>
	<path fill="#FFFFFF" d="M149.94,309.666c-6.834,0-11.25-4.555-11.25-11.604c0-6.751,4.731-11.651,11.25-11.651
		c3.043,0,5.646,1.059,7.526,3.061c2.163,2.304,3.307,5.783,3.169,9.604l-16.65-0.002l0.023,0.522
		c0.186,4.186,2.256,6.309,6.153,6.309c2.583,0,4.675-1.485,5.334-2.981h4.509C158.297,307.458,154.998,309.666,149.94,309.666z
		 M149.761,290.17c-4.328,0-5.652,3.376-5.752,5.371l-0.026,0.525h11.407l-0.106-0.589
		C154.62,291.806,152.917,290.17,149.761,290.17z"/>
	<path fill="#FFFFFF" d="M164.457,317.143l0.001-30.112h5.009v2.938h0.779l0.236-0.237c1.699-2.747,4.434-3.323,6.429-3.323
		c7.343,0,9.96,6.133,9.96,11.873c0,5.667-2.97,11.385-9.604,11.385c-2.704,0-5.127-1.215-6.483-3.249l-0.148-0.223h-0.768
		l-0.089,0.5v10.449H164.457z M175.531,290.17c-3.797,0-5.975,2.892-5.975,7.935c0,4.884,2.25,7.8,6.019,7.8
		c3.797-0.001,5.975-2.844,5.975-7.8C181.55,294.268,179.969,290.17,175.531,290.17z"/>
	<path fill="#FFFFFF" d="M200.9,309.666c-6.834,0-11.25-4.555-11.25-11.604c0-6.751,4.731-11.651,11.25-11.651
		c3.043,0,5.646,1.059,7.526,3.061c2.163,2.304,3.307,5.783,3.169,9.604l-16.65-0.002l0.023,0.522
		c0.186,4.186,2.256,6.309,6.153,6.309c2.583,0,4.675-1.485,5.334-2.981h4.509C209.257,307.458,205.958,309.666,200.9,309.666z
		 M200.721,290.17c-4.328,0-5.652,3.376-5.751,5.371l-0.026,0.525h11.406l-0.106-0.589
		C205.58,291.806,203.876,290.17,200.721,290.17z"/>
	<path fill="#FFFFFF" d="M215.418,309.042v-22.011h5.009v3.205h0.912l0.146-0.236c1.396-2.249,3.867-3.592,6.608-3.592
		c5.62,0,7.912,2.602,7.912,8.98v13.652h-5.32v-12.497c0-2.641-0.472-6.15-4.55-6.15c-3.732,0-5.396,2.186-5.396,7.087v11.562
		H215.418z"/>
	<path fill="#FFFFFF" d="M249.767,309.666c-6.788,0-9.826-5.941-9.826-11.829c0-5.688,2.997-11.429,9.693-11.429
		c2.734,0,5.139,1.196,6.434,3.199l0.42-0.771l-0.044,1h0.5l0.089-0.5v-11.071h5.32v30.778h-5.009v-2.938h-0.786l-0.234,0.246
		C254.709,309.091,251.867,309.666,249.767,309.666z M251.325,290.171c-3.797,0-6.064,2.934-6.064,7.847
		c0,3.926,1.875,7.888,6.064,7.888c3.824,0,5.93-2.817,5.93-7.934C257.255,293.014,255.094,290.171,251.325,290.171z"/>
	<path fill="#FFFFFF" d="M277.362,309.666c-6.834,0-11.25-4.555-11.25-11.604c0-6.751,4.731-11.651,11.25-11.651
		c3.043,0,5.646,1.059,7.526,3.061c2.163,2.304,3.307,5.783,3.17,9.604l-16.649-0.002l0.023,0.522
		c0.186,4.186,2.256,6.309,6.152,6.309c2.583,0,4.675-1.485,5.334-2.981h4.509C285.719,307.458,282.419,309.666,277.362,309.666z
		 M277.183,290.17c-4.328,0-5.652,3.376-5.751,5.371l-0.026,0.525h11.406l-0.106-0.589
		C282.042,291.806,280.338,290.17,277.183,290.17z"/>
	<path fill="#FFFFFF" d="M291.879,309.042v-22.011h5.01v3.205h0.912l0.146-0.236c1.396-2.249,3.866-3.592,6.606-3.592
		c5.62,0,7.912,2.602,7.912,8.98v13.652h-5.319v-12.497c0-2.641-0.472-6.15-4.551-6.15c-3.731,0-5.396,2.186-5.396,7.087v11.562
		H291.879z"/>
	<path fill="#FFFFFF" d="M325.829,309.312c-4.735,0-6.755-1.488-6.755-4.977V290.26h-3.828v-3.229h3.828v-6.898h5.32l-0.001,6.898
		h4.631v3.229h-4.631v11.896c0,2.399,0.771,3.17,3.172,3.17c0.537,0,1.006-0.027,1.458-0.088v3.918
		C328.203,309.26,327.152,309.312,325.829,309.312z"/>
	<rect x="332.336" y="278.263" fill="#FFFFFF" width="5.32" height="30.778"/>
	<path fill="#FFFFFF" d="M345.678,317.144c-1.029,0-2.136-0.058-3.372-0.177v-4.212c0.143,0.014,0.287,0.026,0.431,0.04
		c0.766,0.073,1.557,0.147,2.356,0.147c0.142,0,0.284-0.002,0.426-0.007c1.055-0.107,1.898-0.626,2.409-1.461
		c0.602-0.986,0.686-2.342,0.22-3.537l-7.845-20.906h5.683l5.208,15.757h0.727l0.2-0.348l4.919-15.409h5.459l-9.365,25.23
		C351.802,315.821,349.782,317.144,345.678,317.144z"/>
	<path fill="#FFFFFF" d="M387.115,309.664c-6.916,0-11.384-4.555-11.384-11.604c0-3.474,1.07-6.406,3.095-8.48
		s4.892-3.171,8.289-3.171c6.943,0,11.429,4.573,11.429,11.651C398.544,305.109,394.058,309.664,387.115,309.664z M387.115,290.169
		c-3.854,0-6.064,2.876-6.064,7.891c0,4.984,2.21,7.844,6.064,7.844c3.881,0,6.106-2.859,6.106-7.844
		C393.222,293.045,390.996,290.169,387.115,290.169z"/>
	<path fill="#FFFFFF" d="M401.854,309.043v-22.012h5.011v4.273h0.838l0.215-0.314c1.061-2.655,3.954-4.582,6.879-4.582
		c0.271,0,0.59,0.038,0.879,0.104v4.896c-0.547-0.077-1.195-0.125-1.77-0.125c-4.341,0-6.731,2.802-6.731,7.889v9.871H401.854z"/>
	<path fill="#FFFFFF" d="M427.97,317.766c-4.425,0-9.005-1.981-9.597-6.39h5.347c0.667,2.069,2.421,3.16,5.098,3.16
		c1.667,0,3.005-0.499,3.976-1.483c1.071-1.086,1.624-2.719,1.596-4.721v-3.519h-0.79l-0.233,0.251
		c-1.19,2.072-3.607,3.31-6.464,3.31c-5.846,0-9.336-4.14-9.336-11.072c0-5.247,2.936-10.895,9.381-10.895
		c3.049,0,5.089,1.094,6.418,3.44l0.144,0.254h0.792l0.089-0.5v-2.571h5.011v21.043C439.4,314.506,435.554,317.766,427.97,317.766z
		 M428.505,290.171c-3.414,0-5.619,2.765-5.619,7.043c0,3.577,1.476,7.399,5.619,7.399c4.044,0,5.886-3.559,5.886-6.865
		C434.391,292.862,432.3,290.171,428.505,290.171z"/>
	<path fill="#FFFFFF" d="M450.046,309.666c-4.592,0-7.333-2.392-7.333-6.396c0-4.82,3.557-5.97,7.4-6.493
		c0.691-0.104,1.368-0.183,2.018-0.26c3.031-0.358,5.895-0.696,5.895-3.263c0-3.186-2.324-3.615-4.597-3.615
		c-3.28,0-4.346,1.794-4.624,3.474h-5.335c0.671-5.815,6.681-6.704,10.271-6.704c6.373,0,9.604,2.033,9.604,6.043v11.973
		c0,1.223,0.078,3.254,0.533,4.619h-5.269c-0.182-0.641-0.286-1.218-0.318-1.755l-0.068-1.145l-0.792,0.828
		C455.298,309.198,452.238,309.666,450.046,309.666z M457.195,297.905c-0.688,0.603-2.05,0.79-3.493,0.988
		c-0.509,0.07-1.023,0.141-1.521,0.231c-1.354,0.277-4.148,0.849-4.148,3.875c0,2.281,1.471,3.438,4.373,3.438
		c3.624,0,5.619-2.059,5.619-5.797l-0.001-3.462L457.195,297.905z"/>
	<path fill="#FFFFFF" d="M468.349,309.042v-22.011h5.01v3.205h0.911l0.146-0.236c1.396-2.249,3.866-3.592,6.608-3.592
		c5.619,0,7.91,2.602,7.91,8.98v13.652h-5.318v-12.497c0-2.641-0.472-6.15-4.55-6.15c-3.732,0-5.396,2.186-5.396,7.087v11.562
		H468.349z"/>
	<path fill="#FFFFFF" d="M493.138,309.043v-22.012h5.32v22.012H493.138z M493.138,282.471v-4.208h5.32v4.208H493.138z"/>
	<polygon fill="#FFFFFF" points="502.126,309.043 502.128,304.97 514.713,290.794 503.018,290.794 503.018,287.031 521.424,287.031 
		521.424,291.104 508.839,305.28 522.27,305.28 522.27,309.043 	"/>
	<path fill="#FFFFFF" d="M535.898,309.666c-6.834,0-11.25-4.555-11.25-11.604c0-6.751,4.731-11.651,11.25-11.651
		c3.043,0,5.645,1.058,7.525,3.06c2.164,2.303,3.309,5.783,3.173,9.604l-16.649-0.002l0.023,0.522
		c0.188,4.187,2.257,6.309,6.152,6.309c2.584,0,4.677-1.485,5.335-2.981h4.506C544.255,307.458,540.956,309.666,535.898,309.666z
		 M535.722,290.17c-4.328,0-5.652,3.376-5.751,5.371l-0.026,0.525h11.405l-0.106-0.589
		C540.581,291.806,538.878,290.17,535.722,290.17z"/>
	<path fill="#FFFFFF" d="M559.267,309.666c-6.789,0-9.827-5.941-9.827-11.829c0-5.688,2.997-11.429,9.693-11.429
		c2.733,0,5.139,1.196,6.435,3.199l0.42-0.771l-0.045,1h0.5l0.089-0.5v-11.071h5.319v30.778h-5.008l0.002-2.938h-0.786l-0.235,0.246
		C564.208,309.091,561.367,309.666,559.267,309.666z M560.824,290.171c-3.797,0-6.063,2.934-6.063,7.847
		c0,3.926,1.875,7.888,6.063,7.888c3.824,0,5.93-2.817,5.93-7.934C566.754,293.014,564.593,290.171,560.824,290.171z"/>
	<polygon fill="#FFFFFF" points="595.907,309.042 595.905,283.139 586.381,283.139 586.381,278.263 611.419,278.263 
		611.419,283.139 601.896,283.139 601.896,309.042 	"/>
	<polygon fill="#FFFFFF" points="615.176,309.044 615.176,278.263 637.946,278.263 637.946,283.139 621.166,283.139 
		621.166,290.949 636.566,290.949 636.566,295.38 621.166,295.38 621.166,304.169 638.3,304.169 638.3,309.044 	"/>
	<path fill="#FFFFFF" d="M642.236,309.042v-30.778h13.209c8.717,0,13.921,5.687,13.921,15.212c0,9.747-5.204,15.566-13.921,15.566
		H642.236z M648.225,304.168h6.731c5.274,0,8.423-3.747,8.423-10.023c0-7.508-3.073-11.004-9.67-11.004h-5.484V304.168z"/>
	<path fill="#FFFFFF" d="M695.277,309.666c-6.834,0-11.25-4.555-11.25-11.604c0-6.751,4.731-11.651,11.25-11.651
		c3.042,0,5.645,1.058,7.524,3.059c2.164,2.304,3.308,5.783,3.172,9.605l-16.648-0.002l0.023,0.522
		c0.188,4.187,2.258,6.309,6.152,6.309c2.584,0,4.677-1.485,5.335-2.981h4.506C703.634,307.458,700.335,309.666,695.277,309.666z
		 M695.101,290.17c-4.328,0-5.652,3.376-5.751,5.371l-0.026,0.525h11.405l-0.106-0.589
		C699.959,291.806,698.257,290.17,695.101,290.17z"/>
	<polygon fill="#FFFFFF" points="714.464,309.043 706.926,287.031 712.491,287.031 717.343,302.743 718.081,302.743 718.278,302.39 
		723.023,287.031 728.231,287.031 720.779,309.043 	"/>
	<path fill="#FFFFFF" d="M740.407,309.666c-6.834,0-11.25-4.555-11.25-11.604c0-6.751,4.731-11.651,11.25-11.651
		c3.044,0,5.646,1.059,7.526,3.061c2.164,2.304,3.307,5.783,3.169,9.604l-16.647-0.002l0.023,0.522
		c0.188,4.187,2.257,6.309,6.152,6.309c2.584,0,4.676-1.485,5.335-2.981h4.506C748.765,307.458,745.466,309.666,740.407,309.666z
		 M740.232,290.17c-4.325,0-5.651,3.376-5.753,5.371l-0.027,0.525h11.406l-0.106-0.589
		C745.089,291.806,743.387,290.17,740.232,290.17z"/>
	<path fill="#FFFFFF" d="M754.929,309.042l-0.001-22.011h5.009v3.205h0.914l0.146-0.236c1.396-2.249,3.865-3.592,6.605-3.592
		c5.621,0,7.913,2.602,7.913,8.98v13.652h-5.318v-12.497c0-2.641-0.472-6.15-4.553-6.15c-3.731,0-5.396,2.186-5.396,7.087v11.562
		H754.929z"/>
	<path fill="#FFFFFF" d="M788.876,309.312c-4.735,0-6.755-1.488-6.755-4.977V290.26h-3.828v-3.229h3.828v-6.898h5.32v6.898h4.629
		v3.229h-4.629v11.896c0,2.399,0.771,3.17,3.171,3.17c0.537,0,1.006-0.027,1.458-0.088v3.918
		C791.251,309.26,790.2,309.312,788.876,309.312z"/>
</g>
<g>
	<g>
		<polygon fill="#FF2B06" points="40.153,115.316 40.153,36.621 10.499,36.621 10.499,10.5 101.378,10.5 101.378,36.621 
			71.734,36.621 71.734,115.316 		"/>
		<polygon fill="#FF2B06" points="107.442,115.318 107.442,10.5 195.634,10.5 195.634,36.621 139.044,36.621 139.044,50.808 
			195.634,50.808 195.634,75.01 139.044,75.01 139.044,89.198 195.649,89.198 195.649,115.318 		"/>
		<path fill="#FF2B06" d="M202.12,115.316L202.121,10.5h53c16.15,0,28.495,5.443,36.691,16.179
			c8.709,11.406,10.537,25.913,10.537,36.074c0,33.896-19.034,52.563-53.596,52.563H202.12z M233.721,89.196h13.25
			c20.689,0,23.778-16.852,23.778-26.896c0-23.827-20.017-25.679-26.152-25.679h-10.876V89.196z"/>
	</g>
	<polygon fill="#FF2B06" points="307.111,74.539 329.448,41.692 307.955,10.296 330.61,10.296 339.746,26.575 349.144,10.296 
		371.796,10.296 350.31,41.691 372.647,74.538 349.979,74.539 339.746,57.57 329.767,74.539 	"/>
</g>
<text transform="matrix(1 0 0 1 10.9663 248.3328)" fill="#FFFFFF" font-family="Helvetica" font-size="144.6">Place</text>
</svg>
