<?xml version="1.0" encoding="utf-8"?>
<!-- Generator: Adobe Illustrator 16.0.0, SVG Export Plug-In . SVG Version: 6.00 Build 0)  -->
<!DOCTYPE svg PUBLIC "-//W3C//DTD SVG 1.1//EN" "http://www.w3.org/Graphics/SVG/1.1/DTD/svg11.dtd">
<svg version="1.1" id="Layer_1" xmlns="http://www.w3.org/2000/svg" xmlns:xlink="http://www.w3.org/1999/xlink" x="0px" y="0px"
	 width="2526.67px" height="376.05px" viewBox="0 0 2526.67 376.05" enable-background="new 0 0 2526.67 376.05"
	 xml:space="preserve">
<g>
	<g>
		<polygon fill="#FF2B06" points="40.153,115.316 40.153,36.621 10.499,36.621 10.499,10.5 101.378,10.5 101.378,36.621 
			71.734,36.621 71.734,115.316 		"/>
		<polygon fill="#FF2B06" points="107.442,115.318 107.442,10.5 195.634,10.5 195.634,36.621 139.044,36.621 139.044,50.809 
			195.634,50.809 195.634,75.01 139.044,75.01 139.044,89.198 195.649,89.198 195.649,115.318 		"/>
		<path fill="#FF2B06" d="M202.12,115.316L202.121,10.5h53c16.15,0,28.495,5.443,36.691,16.179
			c8.709,11.406,10.537,25.913,10.537,36.074c0,16.493-4.396,29.399-13.067,38.358c-9.122,9.425-22.757,14.205-40.529,14.205H202.12
			z M233.721,89.196h13.25c20.689,0,23.778-16.851,23.778-26.896c0-23.827-20.017-25.679-26.152-25.679h-10.876V89.196z"/>
	</g>
	<polygon fill="#FF2B06" points="307.111,74.539 329.448,41.692 307.955,10.296 330.61,10.296 339.746,26.576 349.145,10.296 
		371.797,10.296 350.311,41.691 372.648,74.538 349.979,74.539 339.746,57.57 329.767,74.539 	"/>
</g>
<text transform="matrix(1 0 0 1 10.9663 248.3325)" fill="#FFFFFF" font-family="Helvetica" font-size="144.6">Place</text>
<g>
	<polygon fill="#FF2B06" points="29.291,309.044 24.215,301.385 19.14,309.044 13.279,309.044 21.217,297.435 13.999,287.035 
		19.988,287.035 24.307,293.44 28.578,287.035 34.335,287.035 27.121,297.303 35.276,309.044 	"/>
	<path fill="#FFFFFF" d="M44.208,304.949v-3.765h21.478v3.765H44.208z M44.208,295.423v-3.762h21.478v3.762H44.208z"/>
	<path fill="#FFFFFF" d="M77.588,309.044v-22.012h5.32v22.012H77.588z M77.589,282.471v-4.208h5.32v4.208H77.589z"/>
	<path fill="#FFFFFF" d="M103.27,309.042v-12.498c0-2.641-0.472-6.151-4.55-6.151c-3.732,0-5.396,2.186-5.396,7.087v11.562h-5.321
		v-22.01h5.009v3.202h0.911l0.146-0.236c1.395-2.247,3.866-3.589,6.608-3.589c5.62,0,7.912,2.602,7.912,8.979v13.654H103.27z"/>
	<path fill="#FFFFFF" d="M122.352,309.667c-6.788,0-9.826-5.941-9.826-11.83c0-5.688,2.997-11.428,9.693-11.428
		c2.735,0,5.141,1.195,6.435,3.197l0.42-0.771l-0.044,1h0.5l0.089-0.5v-11.072h5.32v30.779h-5.009v-2.938h-0.786l-0.234,0.246
		C127.293,309.092,124.452,309.667,122.352,309.667z M123.91,290.171c-3.797,0-6.064,2.933-6.064,7.845
		c0,3.926,1.875,7.888,6.064,7.888c3.824,0,5.93-2.817,5.93-7.934C129.84,293.014,127.679,290.171,123.91,290.171z"/>
	<path fill="#FFFFFF" d="M149.947,309.667c-6.834,0-11.25-4.556-11.25-11.605c0-6.75,4.731-11.648,11.25-11.648
		c3.043,0,5.646,1.059,7.526,3.061c2.164,2.304,3.307,5.783,3.17,9.604h-16.65l0.023,0.522c0.187,4.183,2.257,6.303,6.152,6.303
		c2.583,0,4.676-1.484,5.334-2.979h4.509C158.303,307.459,155.004,309.667,149.947,309.667z M149.768,290.171
		c-4.329,0-5.652,3.376-5.751,5.37l-0.026,0.525h11.405l-0.106-0.589C154.627,291.808,152.924,290.171,149.768,290.171z"/>
	<path fill="#FFFFFF" d="M164.464,317.142l0.001-30.109h5.009v2.938h0.779l0.235-0.237c1.698-2.747,4.433-3.323,6.429-3.323
		c7.343,0,9.96,6.133,9.96,11.873c0,5.667-2.97,11.385-9.604,11.385c-2.703,0-5.126-1.216-6.483-3.252l-0.148-0.223h-0.768
		l-0.089,0.5v10.449H164.464z M175.538,290.171c-3.797,0-5.975,2.892-5.975,7.933c0,4.884,2.25,7.799,6.019,7.799
		c3.797,0,5.975-2.843,5.975-7.799C181.557,294.269,179.976,290.171,175.538,290.171z"/>
	<path fill="#FFFFFF" d="M200.907,309.667c-6.834,0-11.25-4.556-11.25-11.605c0-6.75,4.731-11.648,11.25-11.648
		c3.043,0,5.646,1.059,7.526,3.061c2.163,2.303,3.307,5.782,3.169,9.604h-16.65l0.023,0.522c0.187,4.183,2.257,6.303,6.152,6.303
		c2.583,0,4.676-1.484,5.334-2.979h4.509C209.263,307.459,205.964,309.667,200.907,309.667z M200.728,290.171
		c-4.329,0-5.652,3.376-5.751,5.37l-0.026,0.525h11.405l-0.106-0.589C205.587,291.808,203.884,290.171,200.728,290.171z"/>
	<path fill="#FFFFFF" d="M230.692,309.042v-12.498c0-2.641-0.472-6.151-4.55-6.151c-3.732,0-5.396,2.186-5.396,7.087v11.562h-5.321
		v-22.01h5.009v3.202h0.911l0.146-0.236c1.395-2.247,3.866-3.589,6.608-3.589c5.62,0,7.912,2.602,7.912,8.979v13.654H230.692z"/>
	<path fill="#FFFFFF" d="M249.774,309.667c-6.788,0-9.826-5.941-9.826-11.83c0-5.688,2.997-11.428,9.692-11.428
		c2.735,0,5.141,1.195,6.435,3.197l0.42-0.771l-0.045,1h0.5l0.089-0.5v-11.072h5.32v30.779h-5.009l0.001-2.938h-0.786l-0.234,0.246
		C254.715,309.092,251.874,309.667,249.774,309.667z M251.332,290.171c-3.796,0-6.063,2.933-6.063,7.845
		c0,3.926,1.875,7.888,6.063,7.888c3.825,0,5.931-2.817,5.931-7.934C257.262,293.014,255.1,290.171,251.332,290.171z"/>
	<path fill="#FFFFFF" d="M277.368,309.667c-6.834,0-11.251-4.556-11.251-11.605c0-6.75,4.732-11.648,11.251-11.648
		c3.043,0,5.646,1.059,7.526,3.061c2.163,2.303,3.307,5.782,3.169,9.604h-16.649l0.023,0.522c0.188,4.183,2.257,6.303,6.152,6.303
		c2.584,0,4.676-1.484,5.334-2.979h4.508C285.724,307.459,282.425,309.667,277.368,309.667z M277.19,290.171
		c-4.329,0-5.652,3.376-5.751,5.37l-0.026,0.525h11.406l-0.106-0.589C282.049,291.808,280.346,290.171,277.19,290.171z"/>
	<path fill="#FFFFFF" d="M307.154,309.042v-12.498c0-2.641-0.472-6.151-4.554-6.151c-3.731,0-5.396,2.186-5.396,7.087v11.562h-5.321
		l0.002-22.01h5.01v3.202h0.911l0.147-0.236c1.396-2.247,3.865-3.589,6.605-3.589c5.62,0,7.912,2.602,7.912,8.979v13.654H307.154z"
		/>
	<path fill="#FFFFFF" d="M325.836,309.31c-4.735,0-6.756-1.487-6.756-4.975v-14.076h-3.827v-3.229h3.827v-6.898h5.321v6.9h4.629
		v3.229h-4.629v11.896c0,2.399,0.771,3.17,3.171,3.17c0.536,0,1.005-0.028,1.458-0.089v3.916
		C328.208,309.259,327.158,309.31,325.836,309.31z"/>
	<rect x="332.343" y="278.263" fill="#FFFFFF" width="5.32" height="30.779"/>
	<path fill="#FFFFFF" d="M345.684,317.144c-1.022,0-2.129-0.058-3.373-0.176v-4.213c0.15,0.014,0.3,0.028,0.451,0.042
		c0.761,0.071,1.549,0.146,2.343,0.146c0.14,0,0.279-0.002,0.418-0.007c1.056-0.107,1.899-0.626,2.41-1.463
		c0.602-0.987,0.686-2.342,0.218-3.535l-7.843-20.903h5.683l5.207,15.756h0.727l0.201-0.348l4.918-15.408h5.459l-9.364,25.228
		C351.809,315.821,349.788,317.144,345.684,317.144z"/>
	<path fill="#FFFFFF" d="M23.536,357.248c-6.916,0-11.384-4.556-11.384-11.606c0-7.077,4.469-11.649,11.384-11.649
		c6.943,0,11.429,4.572,11.429,11.649C34.965,352.692,30.479,357.248,23.536,357.248z M23.536,337.753
		c-3.854,0-6.064,2.875-6.064,7.889c0,4.984,2.21,7.844,6.064,7.844c3.882,0,6.108-2.859,6.108-7.844
		C29.644,340.628,27.418,337.753,23.536,337.753z"/>
	<path fill="#FFFFFF" d="M38.276,356.626l0.001-22.01h5.009v4.271h0.838l0.215-0.314c1.062-2.654,3.955-4.581,6.88-4.581
		c0.272,0,0.591,0.038,0.879,0.103v4.897c-0.544-0.078-1.191-0.125-1.77-0.125c-4.34,0-6.731,2.802-6.731,7.889v9.871H38.276z"/>
	<path fill="#FFFFFF" d="M64.392,365.348c-4.425,0-9.005-1.981-9.598-6.39h5.348c0.667,2.071,2.42,3.162,5.096,3.162
		c1.668,0,3.006-0.499,3.978-1.484c1.072-1.086,1.624-2.719,1.597-4.722v-3.519h-0.79l-0.233,0.251
		c-1.191,2.073-3.608,3.312-6.465,3.312c-5.846,0-9.336-4.14-9.336-11.074c0-5.247,2.936-10.895,9.381-10.895
		c3.05,0,5.089,1.093,6.419,3.438l0.144,0.254h0.792l0.089-0.5v-2.57h5.009v21.046C75.821,361.998,71.869,365.348,64.392,365.348z
		 M64.927,337.755c-3.413,0-5.619,2.765-5.619,7.043c0,3.575,1.476,7.396,5.619,7.396h0c1.841,0,3.377-0.741,4.443-2.144
		c0.931-1.224,1.443-2.899,1.443-4.719C70.813,340.446,68.723,337.755,64.927,337.755z"/>
	<path fill="#FFFFFF" d="M86.466,357.251c-4.592,0-7.333-2.393-7.333-6.399c0-4.818,3.557-5.968,7.4-6.492
		c0.689-0.103,1.363-0.182,2.01-0.258c3.034-0.356,5.9-0.694,5.9-3.261c0-3.187-2.323-3.616-4.595-3.616
		c-3.28,0-4.346,1.793-4.625,3.472H79.89c0.671-5.814,6.681-6.703,10.271-6.703c6.373,0,9.604,2.033,9.604,6.043v11.973
		c0,1.223,0.078,3.254,0.533,4.619h-5.269c-0.183-0.647-0.287-1.226-0.319-1.758l-0.067-1.146l-0.793,0.829
		C92.186,356.293,89.563,357.251,86.466,357.251z M93.616,345.491c-0.689,0.603-2.119,0.799-3.5,0.988
		c-0.506,0.069-1.017,0.14-1.512,0.229c-1.354,0.276-4.149,0.847-4.149,3.875c0,1.568,0.759,3.438,4.373,3.438
		c3.623,0,5.619-2.059,5.619-5.796l-0.001-3.46L93.616,345.491z"/>
	<path fill="#FFFFFF" d="M120.037,356.626v-12.498c0-2.641-0.472-6.151-4.55-6.151c-3.732,0-5.396,2.186-5.396,7.088v11.562h-5.321
		v-22.01h5.009v3.201h0.911l0.147-0.236c1.396-2.246,3.866-3.588,6.608-3.588c5.62,0,7.912,2.602,7.912,8.979v13.654H120.037z"/>
	<path fill="#FFFFFF" d="M129.56,356.628v-22.012h5.32v22.012H129.56z M129.56,330.054v-4.208h5.32v4.208H129.56z"/>
	<polygon fill="#FFFFFF" points="138.549,356.628 138.55,352.555 151.135,338.378 139.44,338.378 139.44,334.617 157.846,334.617 
		157.846,338.689 145.261,352.865 158.691,352.865 158.691,356.628 	"/>
	<path fill="#FFFFFF" d="M172.32,357.25c-6.834,0-11.25-4.556-11.25-11.605c0-6.75,4.731-11.648,11.25-11.648
		c3.044,0,5.646,1.058,7.527,3.06c2.163,2.304,3.307,5.783,3.17,9.604l-16.648-0.002l0.023,0.522
		c0.186,4.184,2.255,6.305,6.151,6.305c2.585,0,4.676-1.484,5.334-2.979h4.508C180.677,355.042,177.378,357.25,172.32,357.25z
		 M172.143,337.753c-4.329,0-5.652,3.377-5.751,5.371l-0.026,0.525h11.404l-0.106-0.589
		C177.002,339.39,175.299,337.753,172.143,337.753z"/>
	<path fill="#FFFFFF" d="M195.688,357.25c-6.789,0-9.827-5.94-9.827-11.828c0-5.689,2.997-11.43,9.693-11.43
		c2.734,0,5.14,1.196,6.434,3.199l0.42-0.771l-0.045,1h0.5l0.089-0.5v-11.072h5.321v30.779h-5.009l0.001-2.938h-0.786l-0.235,0.246
		C200.629,356.674,197.788,357.25,195.688,357.25z M197.246,337.755c-3.796,0-6.063,2.933-6.063,7.844
		c0,3.927,1.875,7.889,6.063,7.889c3.824,0,5.93-2.817,5.93-7.934C203.174,340.598,201.013,337.755,197.246,337.755z"/>
	<polygon fill="#FFFFFF" points="232.328,356.626 232.328,330.721 222.803,330.721 222.803,325.846 247.841,325.846 
		247.841,330.721 238.316,330.721 238.316,356.626 	"/>
	<polygon fill="#FFFFFF" points="251.598,356.628 251.597,325.846 274.366,325.846 274.366,330.721 257.586,330.721 
		257.586,338.533 272.986,338.533 272.986,342.962 257.586,342.962 257.586,351.751 274.722,351.751 274.722,356.628 	"/>
	<path fill="#FFFFFF" d="M278.658,356.626v-30.78h13.209c8.717,0,13.921,5.688,13.921,15.213c0,9.748-5.204,15.567-13.921,15.567
		H278.658z M284.646,351.751h6.731c5.274,0,8.423-3.747,8.423-10.024c0-7.508-3.073-11.005-9.67-11.005h-5.484V351.751z"/>
	<path fill="#FFFFFF" d="M331.698,357.25c-6.834,0-11.25-4.556-11.25-11.605c0-6.75,4.731-11.648,11.25-11.648
		c3.042,0,5.644,1.058,7.524,3.058c2.164,2.303,3.308,5.783,3.173,9.606l-16.648-0.002l0.023,0.522
		c0.188,4.184,2.258,6.305,6.152,6.305c2.584,0,4.677-1.484,5.335-2.979h4.506C340.056,355.042,336.757,357.25,331.698,357.25z
		 M331.522,337.753c-4.327,0-5.652,3.376-5.752,5.371l-0.026,0.525h11.405l-0.106-0.589
		C336.381,339.39,334.678,337.753,331.522,337.753z"/>
	<polygon fill="#FFFFFF" points="350.885,356.626 343.348,334.615 348.913,334.615 353.765,350.328 354.502,350.328 354.7,349.975 
		359.446,334.615 364.653,334.615 357.2,356.626 	"/>
	<path fill="#FFFFFF" d="M376.827,357.25c-6.834,0-11.25-4.556-11.25-11.605c0-6.75,4.731-11.648,11.25-11.648
		c3.044,0,5.647,1.059,7.527,3.061c2.163,2.304,3.307,5.782,3.169,9.604l-16.646-0.002l0.023,0.522
		c0.188,4.184,2.257,6.305,6.151,6.305c2.584,0,4.677-1.484,5.335-2.979h4.506C385.187,355.042,381.887,357.25,376.827,357.25z
		 M376.654,337.753c-4.325,0-5.651,3.376-5.753,5.371l-0.027,0.525h11.405l-0.106-0.589
		C381.511,339.39,379.809,337.753,376.654,337.753z"/>
	<path fill="#FFFFFF" d="M406.619,356.626v-12.498c0-2.641-0.472-6.151-4.553-6.151c-3.732,0-5.396,2.186-5.396,7.088v11.562h-5.32
		l-0.001-22.01h5.01v3.201h0.914l0.146-0.236c1.395-2.247,3.864-3.588,6.605-3.588c5.62,0,7.912,2.602,7.912,8.979v13.654H406.619z"
		/>
	<path fill="#FFFFFF" d="M425.298,356.894c-4.735,0-6.755-1.487-6.755-4.975v-14.076h-3.828v-3.229h3.828v-6.898h5.32v6.9h4.629
		v3.229h-4.629v11.896c0,2.399,0.771,3.17,3.171,3.17c0.536,0,1.005-0.028,1.458-0.089v3.917
		C427.674,356.843,426.624,356.894,425.298,356.894z"/>
</g>
</svg>
